# xmcd
# 
# Track frame offsets:
#     150
#     29663
#     42260
#     51431
#     78127
#     96584
#     126446
#     144353
#     163617
#     186416
#     222123
#     240243
#     251175
# 
# Disc length: 3494
# 
# Revision: 0
# Processed by: cddbd v1.5.2PL0 Copyright (c) Steve Scherf et al.
# Submitted via: fre:ac v1.0.27
# 
DISCID=bc0da40d
DTITLE=長見 順 - マダム・ギター
DYEAR=2004
DGENRE=Blues
TTITLE0=Funk #5 (Inst.)
TTITLE1=ニッポン人のベッシーちゃん
TTITLE2=奇妙な隣人
TTITLE3=ムードシナ
TTITLE4=半袖着たり長袖着たり
TTITLE5=ミッキーハウス
TTITLE6=微炭酸
TTITLE7=Duck Walk
TTITLE8=富山の薬売りの唄
TTITLE9=待合室
TTITLE10=His Name Is Mr. Fuji, He Is Amami's No.1 Super Drunk
TTITLE11=ツキのない夜
TTITLE12=マダム・ギター (Inst.)
EXTD=
EXTT0=
EXTT1=
EXTT2=
EXTT3=
EXTT4=
EXTT5=
EXTT6=
EXTT7=
EXTT8=
EXTT9=
EXTT10=
EXTT11=
EXTT12=
PLAYORDER=
